# xmcd CD database file
#
# Track frame offsets:
#	187
#	19530
#	42682
#	78222
#	115392
#	178460
#	206297
#	259465
#	277585
#	285217
#	287660
#
# Disc length: 3902 seconds
#
# Revision: 0
# Processed by: cddbd v1.5.1PL0 Copyright (c) Steve Scherf et al.
# Submitted via: CDex 1.51
#
DISCID=990f3c0b
DTITLE=河内屋菊水丸 - 菊水丸の河内音頭　秘蔵コレクション
DYEAR=1992
DGENRE=邦楽
TTITLE0=天使の贈り物
TTITLE1=とんとん
TTITLE2=グリコ・森永大事件〜その後の怪人２１面相＜前編＞
TTITLE3=グリコ・森永大事件〜その後の怪人２１面相＜後編＞
TTITLE4=豊田商事・永野一男の少年時代
TTITLE5=阪神タイガース日本一音頭
TTITLE6=平和音頭
TTITLE7=武豊に捧げる音頭
TTITLE8=河内の歴史
TTITLE9=スタンドの宇佐美ＣＭソング
TTITLE10=天使の贈り物
EXTD=YEAR: 1992
EXTT0=
EXTT1=
EXTT2=
EXTT3=
EXTT4=
EXTT5=
EXTT6=
EXTT7=
EXTT8=
EXTT9=
EXTT10=
PLAYORDER=
